<svg width="45" height="45" viewBox="0 0 45 45" fill="none" xmlns="http://www.w3.org/2000/svg">
<rect width="45" height="45" rx="14" fill="url(#paint0_linear_45777_311)"/>
<path d="M22.2144 27.3925H16.2812" stroke="white" stroke-width="1.5" stroke-linecap="round" stroke-linejoin="round"/>
<path fill-rule="evenodd" clip-rule="evenodd" d="M25.9375 27.3934C25.9375 29.2651 26.5617 29.8884 28.4325 29.8884C30.3033 29.8884 30.9274 29.2651 30.9274 27.3934C30.9274 25.5218 30.3033 24.8984 28.4325 24.8984C26.5617 24.8984 25.9375 25.5218 25.9375 27.3934Z" stroke="white" stroke-width="1.5" stroke-linecap="round" stroke-linejoin="round"/>
<path d="M24.9951 17.7779H30.9274" stroke="white" stroke-width="1.5" stroke-linecap="round" stroke-linejoin="round"/>
<path fill-rule="evenodd" clip-rule="evenodd" d="M21.272 17.7767C21.272 15.9059 20.6479 15.2817 18.777 15.2817C16.9054 15.2817 16.2812 15.9059 16.2812 17.7767C16.2812 19.6484 16.9054 20.2717 18.777 20.2717C20.6479 20.2717 21.272 19.6484 21.272 17.7767Z" stroke="white" stroke-width="1.5" stroke-linecap="round" stroke-linejoin="round"/>
<defs>
<linearGradient id="paint0_linear_45777_311" x1="-9" y1="-13" x2="45" y2="45" gradientUnits="userSpaceOnUse">
<stop stop-color="#46A358" stop-opacity="0.45"/>
<stop offset="1" stop-color="#46A358"/>
</linearGradient>
</defs>
</svg>
