<svg width="16" height="16" viewBox="0 0 16 16" fill="none" xmlns="http://www.w3.org/2000/svg">
    <!-- <rect width="16" height="16" rx="4" fill="url(#paint0_linear_45777_311)" /> -->
    <!-- <path d="M10 13 H35" stroke="white" stroke-width="2" stroke-linecap="round" stroke-linejoin="round"/>
<path d="M10 22.5 H35" stroke="white" stroke-width="2" stroke-linecap="round" stroke-linejoin="round"/>
<path d="M10 32 H35" stroke="white" stroke-width="2" stroke-linecap="round" stroke-linejoin="round"/> -->
    <path fill="white"
        d="M11.02 3.77l.01-.01.99.99V2.5l-.5-.5h-9l-.51.5v.493L2 3v10.29l.36.46 5 1.72L8 15v-1h3.52l.5-.5v-2.25l-1 1V13H8V4.71l-.33-.46L4.036 3h6.984v.77zM7 14.28l-4-1.34V3.72l4 1.34v9.22zm3.09-6.75h4.97v1h-4.93l1.59 1.6-.71.7-2.47-2.46v-.71l2.49-2.48.7.7-1.64 1.65z" />

    <defs>
        <linearGradient id="paint0_linear_45777_311" x1="-9" y1="-13" x2="45" y2="45" gradientUnits="userSpaceOnUse">
            <stop stop-color="#9effb1" stop-opacity="0.45" />
            <stop offset="1" stop-color="#148b2c" />
        </linearGradient>
    </defs>
</svg>