<svg width="215" height="136" viewBox="0 0 215 136" fill="none" xmlns="http://www.w3.org/2000/svg">
<path d="M106.792 0C82.0518 0 62 20.1737 62 45.0642C62 68.3718 79.5915 87.5469 102.146 89.8841C100.784 78.6021 101.29 69.3704 103.022 61.7853C102.051 57.0792 99.8439 50.1103 94.8388 45.1598C94.8388 45.1598 98.1333 50.1315 99.9178 56.8136C99.9178 56.8242 99.9283 56.8349 99.9283 56.8455C100.118 57.5572 100.287 58.2796 100.435 59.0233C100.467 59.1932 100.499 59.3632 100.53 59.5438C100.667 60.3087 100.794 61.0736 100.879 61.8597C75.5685 58.7364 70.1728 35.8856 70.7641 27.2701C97.6898 28.768 103.202 46.8489 104.004 58.0672C112.821 29.0123 140.834 27.3338 143.147 27.2701C144.15 49.6004 127.688 67.012 108.006 68.5312C108.133 67.9256 108.281 67.3201 108.428 66.7252C108.471 66.5446 108.523 66.3746 108.576 66.194C108.692 65.7691 108.809 65.3441 108.946 64.9192C108.999 64.7386 109.062 64.5474 109.115 64.3668C109.263 63.8994 109.421 63.4426 109.579 62.9751C109.622 62.8689 109.653 62.7627 109.696 62.6564C109.896 62.104 110.107 61.5729 110.318 61.0417C110.34 60.9992 110.35 60.9461 110.371 60.9036C110.371 60.9036 110.371 60.9036 110.382 60.9036C115.429 48.623 124.742 40.5812 124.742 40.5812C106.464 51.2045 103.381 78.8252 102.895 89.9266C104.184 90.0434 105.472 90.1284 106.792 90.1284C131.532 90.1284 151.584 69.9547 151.584 45.0642C151.584 20.1737 131.532 0 106.792 0Z" fill="#46A358"/>
<path d="M13.1254 110.178C17.55 110.178 21.1622 112.091 23.5047 115.582L19.1195 119.335C17.55 117.129 15.6492 115.987 13.015 115.987C8.96109 115.987 6.43727 118.669 6.43727 122.755C6.43727 126.913 9.10306 129.706 13.3857 129.706C15.6887 129.706 17.5184 128.897 18.6857 127.54V126.397H13.0544V120.954H24.9716V128.603C23.8359 130.627 22.227 132.245 20.1448 133.491C18.0626 134.705 15.7202 135.332 13.1254 135.332C5.88518 135.443 -0.101029 129.777 0.00150153 122.755C-0.108916 115.772 5.88518 110.067 13.1254 110.178Z" fill="#46A358"/>
<path d="M42.8852 134.874L37.4432 127.336H34.8484V134.874H28.5625V110.609H38.0268C43.3978 110.609 47.3492 113.918 47.3492 118.957C47.3492 121.932 45.9217 124.4 43.5477 125.868L49.9046 134.874H42.8852ZM34.8405 121.821H38.0584C39.8093 121.821 40.945 120.679 40.945 118.957C40.945 117.235 39.8093 116.124 38.0584 116.124H34.8405V121.821Z" fill="#46A358"/>
<path d="M52.3896 110.609H69.1258V116.307H58.6756V119.655H66.1288V124.948H58.6756V129.177H69.5675V134.874H52.3896V110.609Z" fill="#46A358"/>
<path d="M73.4883 110.609H90.2242V116.307H79.7741V119.655H87.2272V124.948H79.7741V129.177H90.6658V134.874H73.4883V110.609Z" fill="#46A358"/>
<path d="M115.967 110.609V135.319H113.956L100.872 122.559V134.874H94.5859V110.165H96.5971L109.682 122.742V110.609H115.967Z" fill="#46A358"/>
<path d="M123.459 126.638C124.887 128.55 126.385 129.764 128.83 129.764C130.478 129.764 131.314 129.177 131.314 127.995C131.314 126.931 130.762 126.598 128.862 125.749L126.377 124.646C122.394 122.877 120.273 120.599 120.273 117.33C120.273 113.029 123.782 110.157 128.712 110.157C132.695 110.157 135.51 112.069 136.969 115.045L132.766 118.282C131.598 116.521 130.502 115.711 128.783 115.711C127.466 115.711 126.63 116.227 126.63 117.259C126.63 118.139 127.142 118.623 128.712 119.242L131.488 120.417C135.692 122.186 137.663 124.313 137.663 127.733C137.663 132.438 133.822 135.311 128.814 135.311C124.469 135.311 120.959 133.216 119.2 129.867L123.459 126.638Z" fill="#46A358"/>
<path d="M141.272 110.609H147.558V119.473H156.368V110.609H162.653V134.874H156.368V125.17H147.558V134.874H141.272V110.609Z" fill="#46A358"/>
<path d="M179.211 110.165C186.23 110.014 192.406 115.791 192.256 122.742C192.398 129.764 186.23 135.429 179.211 135.318C172.16 135.429 166.087 129.764 166.237 122.742C166.087 115.791 172.16 110.022 179.211 110.165ZM179.243 115.973C175.37 115.973 172.665 118.734 172.665 122.742C172.665 124.765 173.288 126.415 174.495 127.669C175.701 128.883 177.31 129.51 179.243 129.51C182.973 129.51 185.82 126.788 185.82 122.742C185.828 118.734 182.973 115.973 179.243 115.973Z" fill="#46A358"/>
<path d="M195.858 110.609H205.323C210.693 110.609 214.645 113.918 214.645 118.957C214.645 123.924 210.591 127.336 205.323 127.336H202.144V134.874H195.858V110.609ZM205.354 121.821C207.105 121.821 208.241 120.679 208.241 118.957C208.241 117.235 207.105 116.124 205.354 116.124H202.136V121.821H205.354Z" fill="#46A358"/>
</svg>
