<?xml version="1.0" encoding="utf-8"?>

<!-- Uploaded to: SVG Repo, www.svgrepo.com, Generator: SVG Repo Mixer Tools -->
<svg width="15px" height="15px" viewBox="0 0 20 20" xmlns="http://www.w3.org/2000/svg">
  <g id="add-user-5" transform="translate(-2 -2)">
    <path id="primary" d="M15,13.1a4.71,4.71,0,0,0-1-.1H8a5,5,0,0,0-5,5v1s2,2,8,2a22,22,0,0,0,3-.19,4.542,4.542,0,0,0,1-.17" fill="none" stroke="#FFFFFF" stroke-linecap="round" stroke-linejoin="round" stroke-width="1.7"/>
    <path id="primary-2" data-name="primary" d="M17,17h4m-2-2v4M11,3a5,5,0,1,0,5,5A5,5,0,0,0,11,3Z" fill="none" stroke="#FFFFFF" stroke-linecap="round" stroke-linejoin="round" stroke-width="1.7"/>
  </g>
</svg>